<svg width="300" height="255" viewBox="0 0 300 255" fill="none" xmlns="http://www.w3.org/2000/svg">
<g clip-path="url(#clip0_30_82)">
<path fill-rule="evenodd" clip-rule="evenodd" d="M271.5 58.5C270.833 58.5 270.167 58.5 269.5 58.5C259.167 58.5 248.833 58.5 238.5 58.5C229.827 58.6664 221.16 58.4998 212.5 58C211.808 53.1689 211.141 48.3356 210.5 43.5C210.5 40.5 210.5 37.5 210.5 34.5C211.833 33.5 211.833 32.5 210.5 31.5C210.334 26.8215 210.501 22.1548 211 17.5C211.5 17 212 16.5 212.5 16C234.833 15.3333 257.167 15.3333 279.5 16C280.49 30.0879 280.824 44.2546 280.5 58.5C277.5 58.5 274.5 58.5 271.5 58.5Z" fill="#7672FF"/>
<path opacity="0.998" fill-rule="evenodd" clip-rule="evenodd" d="M101.5 68.5C99.8933 63.7319 98.7266 58.7319 98 53.5C96.931 49.5966 94.431 47.2633 90.5 46.5C83.9247 57.2376 74.9247 65.4042 63.5 71C58.6496 72.7315 53.6496 73.7315 48.5 74C43.7762 76.4353 42.2762 80.2686 44 85.5C46.1413 88.3208 48.9746 89.6541 52.5 89.5C52.5 91.5 52.5 93.5 52.5 95.5C49.6146 95.1936 46.9479 95.5269 44.5 96.5C26.907 80.3474 23.7404 61.6807 35 40.5C48.1179 26.2615 63.9512 22.0948 82.5 28C85.1277 29.6255 87.461 31.6255 89.5 34C97.4011 36.597 101.901 42.097 103 50.5C103.899 56.6471 103.399 62.6471 101.5 68.5Z" fill="#7672FF"/>
<path fill-rule="evenodd" clip-rule="evenodd" d="M224.5 26.5C238.849 26.1674 253.182 26.5007 267.5 27.5C260.333 27.8333 253.167 28.1667 246 28.5C238.467 28.4972 231.301 27.8306 224.5 26.5Z" fill="#FFCCC2"/>
<path opacity="0.948" fill-rule="evenodd" clip-rule="evenodd" d="M210.5 31.5001C211.833 32.5001 211.833 33.5001 210.5 34.5001C191.155 34.1672 171.822 34.5005 152.5 35.5001C151.516 50.7852 151.183 66.1186 151.5 81.5001C151.88 83.6981 151.213 85.3647 149.5 86.5001C149.333 69.4968 149.5 52.4968 150 35.5001C150.374 34.5839 150.874 33.7505 151.5 33.0001C171.099 31.5367 190.766 31.0367 210.5 31.5001Z" fill="#4BB2FD"/>
<path fill-rule="evenodd" clip-rule="evenodd" d="M224.5 36.5C233.525 36.1685 242.525 36.5018 251.5 37.5C247 37.8333 242.5 38.1667 238 38.5C233.114 38.4927 228.614 37.8261 224.5 36.5Z" fill="#FFCBC1"/>
<path fill-rule="evenodd" clip-rule="evenodd" d="M256.5 36.5C260.226 36.1774 263.893 36.5108 267.5 37.5C265.667 37.8333 263.833 38.1667 262 38.5C259.705 38.4535 257.871 37.7868 256.5 36.5Z" fill="#FFCAC0"/>
<path opacity="0.998" fill-rule="evenodd" clip-rule="evenodd" d="M210.5 43.5C211.141 48.3356 211.808 53.1689 212.5 58C221.16 58.4998 229.827 58.6664 238.5 58.5C234.555 59.8255 230.222 60.4921 225.5 60.5C220.391 60.6141 215.391 60.1141 210.5 59C209.176 53.734 209.176 48.5673 210.5 43.5Z" fill="#FCFCFC"/>
<path fill-rule="evenodd" clip-rule="evenodd" d="M101.5 68.5C102.165 74.8266 102.832 81.1599 103.5 87.5C104.037 99.8053 98.3699 107.139 86.5 109.5C86.2333 115.978 86.8999 122.311 88.5 128.5C87.7797 131.06 86.113 132.893 83.5 134C70.8652 136.663 59.1985 134.496 48.5 127.5C50.4773 118.944 51.8106 110.278 52.5 101.5C52.5 99.5 52.5 97.5 52.5 95.5C52.5 93.5 52.5 91.5 52.5 89.5C48.9746 89.6541 46.1413 88.3208 44 85.5C42.2762 80.2686 43.7762 76.4353 48.5 74C53.6496 73.7315 58.6496 72.7315 63.5 71C74.9247 65.4042 83.9247 57.2376 90.5 46.5C94.431 47.2633 96.931 49.5966 98 53.5C98.7266 58.7319 99.8933 63.7319 101.5 68.5Z" fill="#F5A488"/>
<path opacity="0.907" fill-rule="evenodd" clip-rule="evenodd" d="M157.5 47.5C171.849 47.1674 186.182 47.5007 200.5 48.5C193.333 48.8333 186.167 49.1667 179 49.5C171.467 49.4972 164.301 48.8306 157.5 47.5Z" fill="#4BB2FD"/>
<path fill-rule="evenodd" clip-rule="evenodd" d="M224.5 46.5C238.849 46.1674 253.182 46.5007 267.5 47.5C260.333 47.8333 253.167 48.1667 246 48.5C238.467 48.4972 231.301 47.8306 224.5 46.5Z" fill="#FFCCC3"/>
<path opacity="0.881" fill-rule="evenodd" clip-rule="evenodd" d="M157.5 57.5C166.525 57.1685 175.525 57.5018 184.5 58.5C180 58.8333 175.5 59.1667 171 59.5C166.114 59.4927 161.614 58.8261 157.5 57.5Z" fill="#4BB2FD"/>
<path opacity="0.923" fill-rule="evenodd" clip-rule="evenodd" d="M188.5 57.5C192.555 57.1758 196.555 57.5091 200.5 58.5C198.5 58.8333 196.5 59.1667 194.5 59.5C192.048 59.4609 190.048 58.7943 188.5 57.5Z" fill="#4BB2FD"/>
<path opacity="0.984" fill-rule="evenodd" clip-rule="evenodd" d="M269.5 58.5C270.167 58.5 270.833 58.5 271.5 58.5C271.667 69.8382 271.5 81.1716 271 92.5C270.5 93.6667 269.667 94.5 268.5 95C232.168 95.5 195.835 95.6667 159.5 95.5C160.514 94.3263 161.847 93.6596 163.5 93.5C198.168 93.6667 232.835 93.5 267.5 93C268 92.5 268.5 92 269 91.5C269.5 80.505 269.667 69.505 269.5 58.5Z" fill="#4BB2FD"/>
<path opacity="0.996" fill-rule="evenodd" clip-rule="evenodd" d="M157.5 67.5C171.849 67.1674 186.182 67.5007 200.5 68.5C193.333 68.8333 186.167 69.1667 179 69.5C171.467 69.4972 164.301 68.8306 157.5 67.5Z" fill="#4BB2FD"/>
<path fill-rule="evenodd" clip-rule="evenodd" d="M141.5 73.5C143.309 76.1393 145.642 78.3059 148.5 80C145.244 81.587 143.077 84.087 142 87.5C140.167 84.3333 137.667 81.8333 134.5 80C137.987 79.0113 140.32 76.8446 141.5 73.5Z" fill="#7672FF"/>
<path fill-rule="evenodd" clip-rule="evenodd" d="M151.5 81.5C154.5 86.5 158.5 90.5 163.5 93.5C161.847 93.6596 160.514 94.3263 159.5 95.5C156.111 97.7252 153.611 100.725 152 104.5C149.5 99.3333 145.667 95.5 140.5 93C143.938 91.3893 146.938 89.2226 149.5 86.5C151.213 85.3646 151.88 83.698 151.5 81.5Z" fill="#7672FF"/>
<path fill-rule="evenodd" clip-rule="evenodd" d="M52.5 95.5C52.5 97.5 52.5 99.5 52.5 101.5C49.8333 101.5 47.1667 101.5 44.5 101.5C44.5 99.8333 44.5 98.1667 44.5 96.5C46.9479 95.5269 49.6146 95.1936 52.5 95.5Z" fill="#4BB2FD"/>
<path fill-rule="evenodd" clip-rule="evenodd" d="M82.5 93.5C86.4052 95.389 90.4052 96.0557 94.5 95.5C90.9034 98.0767 87.2367 98.0767 83.5 95.5C82.7025 95.0431 82.3691 94.3764 82.5 93.5Z" fill="#D56554"/>
<path opacity="0.992" fill-rule="evenodd" clip-rule="evenodd" d="M44.5 101.5C47.1667 101.5 49.8333 101.5 52.5 101.5C51.8106 110.278 50.4773 118.944 48.5 127.5C42.4303 129.301 36.4303 131.301 30.5 133.5C33.0474 121.841 37.7141 111.174 44.5 101.5Z" fill="#7773FF"/>
<path fill-rule="evenodd" clip-rule="evenodd" d="M191.5 125.5C188.418 127.075 185.751 129.242 183.5 132C181.482 132.505 179.482 133.005 177.5 133.5C179.2 127.049 181.366 120.716 184 114.5C186 111.167 188.667 108.5 192 106.5C194.18 107.346 195.68 108.846 196.5 111C194.394 115.706 192.727 120.539 191.5 125.5Z" fill="#F6A588"/>
<path fill-rule="evenodd" clip-rule="evenodd" d="M191.5 125.5C195.938 124.425 197.938 126.092 197.5 130.5C198.5 130.5 199.5 130.5 200.5 130.5C196.656 131.335 193.99 133.668 192.5 137.5C190.086 138.777 189.919 140.443 192 142.5C193.166 148.216 192.333 153.55 189.5 158.5C189.833 158.833 190.167 159.167 190.5 159.5C192.894 156.627 194.394 153.294 195 149.5C198.107 150.795 201.274 151.795 204.5 152.5C202.679 158.815 199.346 164.148 194.5 168.5C191.575 168.54 188.909 167.707 186.5 166C183.167 164 179.833 162 176.5 160C174.937 159.241 173.937 158.074 173.5 156.5C175.012 151.271 176.012 145.938 176.5 140.5C181.881 135.785 186.881 130.785 191.5 125.5Z" fill="#F6A487"/>
<path fill-rule="evenodd" clip-rule="evenodd" d="M48.5 127.5C59.1985 134.496 70.8652 136.663 83.5 134C86.113 132.893 87.7797 131.06 88.5 128.5C103.367 129.683 115.534 136.017 125 147.5C130.061 155.721 134.894 164.054 139.5 172.5C127.34 173.331 115.007 173.831 102.5 174C99.177 182.144 96.177 190.311 93.5 198.5C86.0701 202.632 78.5701 206.632 71 210.5C71.0137 218.515 71.5137 226.515 72.5 234.5C71.596 235.209 71.2627 236.209 71.5 237.5C53.3231 239.808 35.3231 242.475 17.5 245.5C9.9436 247.341 3.9436 245.008 -0.5 238.5C-0.5 232.167 -0.5 225.833 -0.5 219.5C1.65001 203.645 3.81667 187.645 6 171.5C7.59891 154.437 15.7656 141.77 30.5 133.5C36.4303 131.301 42.4303 129.301 48.5 127.5Z" fill="#4BB2FD"/>
<path opacity="0.999" fill-rule="evenodd" clip-rule="evenodd" d="M208.5 137.5C207.167 137.5 205.833 137.5 204.5 137.5C203.833 137.5 203.167 137.5 202.5 137.5C200.833 137.5 199.167 137.5 197.5 137.5C195.833 137.5 194.167 137.5 192.5 137.5C193.99 133.668 196.656 131.335 200.5 130.5C204.707 130.663 208.874 130.329 213 129.5C216.018 130.006 218.852 131.006 221.5 132.5C217.843 135.835 213.51 137.501 208.5 137.5Z" fill="#CD553F"/>
<path fill-rule="evenodd" clip-rule="evenodd" d="M191.5 125.5C186.881 130.785 181.881 135.785 176.5 140.5C168.539 141.563 160.539 142.229 152.5 142.5C152.326 140.139 151.993 137.806 151.5 135.5C160.128 134.413 168.795 133.746 177.5 133.5C179.482 133.005 181.482 132.505 183.5 132C185.751 129.242 188.418 127.075 191.5 125.5Z" fill="#CD5640"/>
<path fill-rule="evenodd" clip-rule="evenodd" d="M204.5 137.5C205.833 137.5 207.167 137.5 208.5 137.5C208.946 142.071 208.28 146.404 206.5 150.5C205.07 150.421 203.736 150.754 202.5 151.5C202.167 150.833 201.833 150.167 201.5 149.5C202.817 145.565 203.817 141.565 204.5 137.5Z" fill="#F6A285"/>
<path fill-rule="evenodd" clip-rule="evenodd" d="M192.5 137.5C194.167 137.5 195.833 137.5 197.5 137.5C196.679 141.284 195.679 144.951 194.5 148.5C196.467 148.739 198.301 148.406 200 147.5C201.759 144.392 202.592 141.059 202.5 137.5C203.167 137.5 203.833 137.5 204.5 137.5C203.817 141.565 202.817 145.565 201.5 149.5C201.833 150.167 202.167 150.833 202.5 151.5C203.736 150.754 205.07 150.421 206.5 150.5C206.167 151.5 205.5 152.167 204.5 152.5C201.274 151.795 198.107 150.795 195 149.5C194.394 153.294 192.894 156.627 190.5 159.5C190.167 159.167 189.833 158.833 189.5 158.5C192.333 153.55 193.166 148.216 192 142.5C189.919 140.443 190.086 138.777 192.5 137.5Z" fill="#D56553"/>
<path fill-rule="evenodd" clip-rule="evenodd" d="M197.5 137.5C199.167 137.5 200.833 137.5 202.5 137.5C202.592 141.059 201.759 144.392 200 147.5C198.301 148.406 196.467 148.739 194.5 148.5C195.679 144.951 196.679 141.284 197.5 137.5Z" fill="#F49F83"/>
<path fill-rule="evenodd" clip-rule="evenodd" d="M173.5 156.5C173.937 158.074 174.937 159.241 176.5 160C179.833 162 183.167 164 186.5 166C188.909 167.707 191.575 168.54 194.5 168.5C195.23 169.712 196.23 170.712 197.5 171.5C189.28 193.943 178.446 214.943 165 234.5C156.2 243.497 146.366 244.83 135.5 238.5C135.077 237.735 134.743 236.902 134.5 236C139.371 220.547 144.705 205.38 150.5 190.5C157.435 180.364 164.102 169.364 170.5 157.5C171.325 156.614 172.325 156.281 173.5 156.5Z" fill="#4BB2FD"/>
<path opacity="0.999" fill-rule="evenodd" clip-rule="evenodd" d="M139.5 172.5C144.669 173.143 149.835 173.81 155 174.5C154.233 179.977 152.733 185.311 150.5 190.5C144.705 205.38 139.371 220.547 134.5 236C134.743 236.902 135.077 237.735 135.5 238.5C134.733 239.172 134.066 240.005 133.5 241C126.508 241.5 119.508 241.666 112.5 241.5C102.161 241.666 91.828 241.5 81.5 241C80.6163 238.433 80.9496 235.933 82.5 233.5C94.2421 233.7 105.909 232.866 117.5 231C121.13 230.729 122.13 229.062 120.5 226C119.167 225.667 117.833 225.333 116.5 225C118.878 224.489 121.212 223.822 123.5 223C124.574 222.261 125.241 221.261 125.5 220C124.008 218.115 122.008 217.115 119.5 217C121.5 216.333 123.5 215.667 125.5 215C127.299 210.378 125.633 208.044 120.5 208C121.833 206.333 121.833 204.667 120.5 203C112.418 202.846 104.418 203.679 96.5 205.5C94.8333 205.167 93.1667 204.833 91.5 204.5C92.3721 202.55 93.0388 200.55 93.5 198.5C96.177 190.311 99.177 182.144 102.5 174C115.007 173.831 127.34 173.331 139.5 172.5Z" fill="#7672FF"/>
<path fill-rule="evenodd" clip-rule="evenodd" d="M93.5 198.5C93.0388 200.55 92.3721 202.55 91.5 204.5C93.1667 204.833 94.8333 205.167 96.5 205.5C104.418 203.679 112.418 202.846 120.5 203C121.833 204.667 121.833 206.333 120.5 208C125.633 208.044 127.299 210.378 125.5 215C123.5 215.667 121.5 216.333 119.5 217C122.008 217.115 124.008 218.115 125.5 220C125.241 221.261 124.574 222.261 123.5 223C121.212 223.822 118.878 224.489 116.5 225C117.833 225.333 119.167 225.667 120.5 226C122.13 229.062 121.13 230.729 117.5 231C105.909 232.866 94.2421 233.7 82.5 233.5C79.1194 233.46 75.7861 233.793 72.5 234.5C71.5137 226.515 71.0137 218.515 71 210.5C78.5701 206.632 86.0701 202.632 93.5 198.5Z" fill="#F3A387"/>
<path fill-rule="evenodd" clip-rule="evenodd" d="M111.5 209.5C113.527 209.338 115.527 209.505 117.5 210C112.125 211.843 106.792 212.676 101.5 212.5C104.891 211.283 108.224 210.283 111.5 209.5Z" fill="#D36252"/>
<path fill-rule="evenodd" clip-rule="evenodd" d="M37.5 182.5C38.4972 182.47 39.1639 182.97 39.5 184C38.1102 193.12 37.1102 202.287 36.5 211.5C47.5154 210.907 58.5154 210.407 69.5 210C53.6313 213.038 37.6313 214.371 21.5 214C21.8333 213.667 22.1667 213.333 22.5 213C26.4862 212.501 30.4862 212.334 34.5 212.5C35.3358 202.481 36.3358 192.481 37.5 182.5Z" fill="#7672FF"/>
<path fill-rule="evenodd" clip-rule="evenodd" d="M110.5 216.5C113.187 216.336 115.854 216.503 118.5 217C114.097 218.195 109.597 219.028 105 219.5C104.167 219.167 103.333 218.833 102.5 218.5C105.306 217.832 107.972 217.166 110.5 216.5Z" fill="#D46453"/>
<path fill-rule="evenodd" clip-rule="evenodd" d="M103.5 224.5C107.182 224.335 110.848 224.501 114.5 225C112.712 226.088 110.712 226.588 108.5 226.5C106.36 226.444 104.694 225.777 103.5 224.5Z" fill="#D86B59"/>
<path fill-rule="evenodd" clip-rule="evenodd" d="M82.5 233.5C80.9496 235.933 80.6163 238.433 81.5 241C91.828 241.5 102.161 241.666 112.5 241.5C112.34 245.622 112.34 249.956 112.5 254.5C82.8333 254.5 53.1667 254.5 23.5 254.5C23.5 251.833 23.5 249.167 23.5 246.5C39.1174 244.009 54.7841 241.509 70.5 239C72.1066 237.951 72.7733 236.451 72.5 234.5C75.7861 233.793 79.1194 233.46 82.5 233.5Z" fill="#4BB2FD"/>
<path fill-rule="evenodd" clip-rule="evenodd" d="M72.5 234.5C72.7733 236.451 72.1066 237.951 70.5 239C54.7841 241.509 39.1174 244.009 23.5 246.5C21.7354 245.539 19.7354 245.205 17.5 245.5C35.3231 242.475 53.3231 239.808 71.5 237.5C71.2627 236.209 71.596 235.209 72.5 234.5Z" fill="#7672FF"/>
</g>
<defs>
<clipPath id="clip0_30_82">
<rect width="300" height="255" fill="white"/>
</clipPath>
</defs>
</svg>
