<svg width="300" height="256" viewBox="0 0 300 256" fill="none" xmlns="http://www.w3.org/2000/svg">
<g clip-path="url(#clip0_30_13)">
<path opacity="0.999" fill-rule="evenodd" clip-rule="evenodd" d="M170.5 -0.5C173.5 -0.5 176.5 -0.5 179.5 -0.5C189.552 3.06811 199.885 6.06811 210.5 8.5C210.611 9.11742 210.944 9.61742 211.5 10C213.556 10.3108 215.556 10.8108 217.5 11.5C218.107 11.3764 218.44 11.0431 218.5 10.5C234.645 15.7886 250.979 20.6219 267.5 25C269.848 25.3459 271.681 26.5125 273 28.5C273.546 31.8992 273.213 35.2325 272 38.5C264.313 64.7232 257.146 91.0565 250.5 117.5C249.167 117.5 248.5 118.167 248.5 119.5C248.443 123.505 247.11 127.005 244.5 130C240.969 130.273 237.635 130.44 234.5 130.5C234.423 129.25 233.756 128.417 232.5 128C223.43 125.532 214.43 122.865 205.5 120C204.941 119.275 204.608 118.442 204.5 117.5C205.43 115.394 206.596 113.394 208 111.5C208.49 110.207 208.657 108.873 208.5 107.5C215.373 109.902 222.373 111.902 229.5 113.5C230.669 89.1711 219.169 75.5045 195 72.5C180.446 73.9043 170.28 81.2376 164.5 94.5C176.875 99.0947 189.542 102.761 202.5 105.5C199.361 111.307 194.695 115.307 188.5 117.5C188.389 116.883 188.056 116.383 187.5 116C181.802 113.983 176.136 112.817 170.5 112.5C170.423 111.25 169.756 110.417 168.5 110C162.858 108.34 157.191 106.84 151.5 105.5C150.395 104.4 149.062 103.733 147.5 103.5C147.889 97.3895 146.555 91.7228 143.5 86.5C144.931 86.1193 145.764 85.1193 146 83.5C153.557 55.2615 161.724 27.2615 170.5 -0.5Z" fill="#7672FF"/>
<path fill-rule="evenodd" clip-rule="evenodd" d="M111.5 24.5C112.885 25.5736 114.051 26.9069 115 28.5C117.273 24.3447 118.439 24.678 118.5 29.5C121.187 29.3359 123.854 29.5026 126.5 30C124.074 31.1447 121.741 32.478 119.5 34C122.025 38.0031 121.192 38.5031 117 35.5C113.585 40.9624 112.085 40.2958 112.5 33.5C110.473 33.6621 108.473 33.4955 106.5 33C108.547 31.9274 110.547 30.7607 112.5 29.5C111.691 27.9291 111.357 26.2624 111.5 24.5Z" fill="#7672FF"/>
<path fill-rule="evenodd" clip-rule="evenodd" d="M210.5 24.5C226.451 25.2843 233.618 33.6176 232 49.5C225.844 61.8868 216.344 65.3868 203.5 60C193.534 51.762 192.034 42.262 199 31.5C202.514 28.4999 206.347 26.1666 210.5 24.5Z" fill="#FAFBFB"/>
<path opacity="0.918" fill-rule="evenodd" clip-rule="evenodd" d="M13.5 31.4999C18.3768 30.8123 22.7101 31.979 26.5 34.9999C29.5672 38.9818 32.2339 43.1484 34.5 47.4999C37.8054 46.0277 40.3054 43.6944 42 40.4999C41.5528 45.643 38.7195 49.143 33.5 50.9999C35.1473 59.7087 32.1473 66.3754 24.5 70.9999C26.7203 75.7968 26.887 80.6301 25 85.4999C24.1034 88.5301 22.6034 89.3635 20.5 87.9999C23.9978 82.8563 24.3311 77.5229 21.5 71.9999C17.7125 71.8403 14.0458 71.1736 10.5 69.9999C9.30488 63.2453 11.9715 61.2453 18.5 63.9999C20 65.4999 21.5 66.9999 23 68.4999C29.9168 64.9354 32.7502 59.2687 31.5 51.4999C22.6265 52.4879 15.1265 49.8212 9 43.4999C6.32419 37.8615 7.82419 33.8615 13.5 31.4999ZM14.5 33.4999C24.122 34.4552 29.4553 39.7885 30.5 49.4999C23.8164 49.8301 17.8164 47.9967 12.5 43.9999C8.24064 39.6026 8.90731 36.1026 14.5 33.4999ZM12.5 65.4999C15.4629 65.1506 17.7962 66.1506 19.5 68.4999C15.7871 70.3108 13.4538 69.3108 12.5 65.4999Z" fill="#7672FF"/>
<path fill-rule="evenodd" clip-rule="evenodd" d="M102.5 77.5C96.4621 78.4677 90.6288 80.1343 85 82.5C84.4649 87.0923 84.9649 91.5923 86.5 96C84.2423 98.5849 81.7423 101.085 79 103.5C78.3333 106.167 78.3333 108.833 79 111.5C83.7572 114.529 84.7572 118.529 82 123.5C81.5 125.333 80.3333 126.5 78.5 127C74.3121 128.631 69.9788 129.464 65.5 129.5C60.4238 127.947 56.2571 124.947 53 120.5C46.648 111.463 42.8147 101.463 41.5 90.5C41.6509 85.1941 43.3175 80.5274 46.5 76.5C49.321 77.3307 49.5652 77.4026 46.5 76.5C47.0439 74.915 49.7106 69.915 50.5 68.5C59.6583 59.7821 70.6583 55.7821 83.5 56.5C88.6164 56.3943 93.6164 57.061 98.5 58.5C98.0233 59.4776 97.3567 60.3109 96.5 61C103.108 61.7828 107.442 65.2828 109.5 71.5C107.693 74.2191 105.36 76.2191 102.5 77.5Z" fill="#7672FF"/>
<path fill-rule="evenodd" clip-rule="evenodd" d="M208.5 107.5C207.467 104.401 205.467 103.734 202.5 105.5C189.542 102.761 176.875 99.0947 164.5 94.5C170.28 81.2376 180.446 73.9043 195 72.5C219.169 75.5045 230.669 89.1711 229.5 113.5C222.373 111.902 215.373 109.902 208.5 107.5Z" fill="#FAFAFB"/>
<path fill-rule="evenodd" clip-rule="evenodd" d="M102.5 77.5C104.374 83.5869 106.541 89.5869 109 95.5C110.921 97.9634 113.254 99.9634 116 101.5C118.228 105.154 117.395 107.988 113.5 110C119.002 124.648 114.002 132.148 98.5 132.5C98.6487 139.677 99.6487 146.677 101.5 153.5C91.2698 150.619 80.9365 150.119 70.5 152C67.6902 152.906 65.0236 154.073 62.5 155.5C64.6471 146.988 65.6471 138.321 65.5 129.5C69.9788 129.464 74.3121 128.631 78.5 127C80.3333 126.5 81.5 125.333 82 123.5C84.7572 118.529 83.7572 114.529 79 111.5C78.3333 108.833 78.3333 106.167 79 103.5C81.7423 101.085 84.2423 98.5849 86.5 96C84.9649 91.5923 84.4649 87.0923 85 82.5C90.6288 80.1343 96.4621 78.4677 102.5 77.5Z" fill="#F6A487"/>
<path fill-rule="evenodd" clip-rule="evenodd" d="M143.5 86.5C146.555 91.7228 147.889 97.3895 147.5 103.5C150.635 106.778 152.468 110.778 153 115.5C153.847 111.928 153.347 108.594 151.5 105.5C157.191 106.84 162.858 108.34 168.5 110C169.756 110.417 170.423 111.25 170.5 112.5C165.833 117.833 161.167 123.167 156.5 128.5C148.735 126.253 141.401 123.253 134.5 119.5C136.063 114.394 137.23 109.061 138 103.5C138.333 98.5 138.667 93.5 139 88.5C140.33 87.4178 141.83 86.7512 143.5 86.5Z" fill="#F6A487"/>
<path fill-rule="evenodd" clip-rule="evenodd" d="M147.5 103.5C149.062 103.733 150.395 104.4 151.5 105.5C153.347 108.594 153.847 111.928 153 115.5C152.468 110.778 150.635 106.778 147.5 103.5Z" fill="#D46857"/>
<path fill-rule="evenodd" clip-rule="evenodd" d="M208.5 107.5C208.657 108.873 208.49 110.207 208 111.5C206.596 113.394 205.43 115.394 204.5 117.5C204.608 118.442 204.941 119.275 205.5 120C214.43 122.865 223.43 125.532 232.5 128C233.756 128.417 234.423 129.25 234.5 130.5C232.232 132.465 229.565 133.632 226.5 134C221.201 134.93 215.867 135.597 210.5 136C208.34 136.996 206.673 138.496 205.5 140.5C198.112 138.597 191.112 135.93 184.5 132.5C184.22 127.016 185.553 122.016 188.5 117.5C194.695 115.307 199.361 111.307 202.5 105.5C205.467 103.734 207.467 104.401 208.5 107.5Z" fill="#F5A386"/>
<path fill-rule="evenodd" clip-rule="evenodd" d="M134.5 119.5C141.401 123.253 148.735 126.253 156.5 128.5C157.043 128.56 157.376 128.893 157.5 129.5C156.531 132.769 155.198 135.769 153.5 138.5C145.737 134.775 137.737 131.942 129.5 130C137.405 133.467 145.405 136.634 153.5 139.5C151.233 149.297 148.567 158.963 145.5 168.5C135.053 163.944 124.386 159.944 113.5 156.5C119.823 144.522 126.156 132.522 132.5 120.5C132.957 119.702 133.624 119.369 134.5 119.5Z" fill="#4BB2FD"/>
<path opacity="0.999" fill-rule="evenodd" clip-rule="evenodd" d="M184.5 132.5C191.112 135.93 198.112 138.597 205.5 140.5C206.586 140.62 207.253 141.287 207.5 142.5C206.394 145.703 205.061 148.703 203.5 151.5C195.402 147.796 187.069 144.462 178.5 141.5C179.38 138.738 180.546 136.071 182 133.5C182.671 132.748 183.504 132.414 184.5 132.5Z" fill="#4BB3FD"/>
<path fill-rule="evenodd" clip-rule="evenodd" d="M153.5 138.5C153.5 138.833 153.5 139.167 153.5 139.5C145.405 136.634 137.405 133.467 129.5 130C137.737 131.942 145.737 134.775 153.5 138.5Z" fill="#5C58FF"/>
<path fill-rule="evenodd" clip-rule="evenodd" d="M178.5 142.5C186.542 146.071 194.875 149.071 203.5 151.5C198.606 172.351 191.44 192.351 182 211.5C180.167 213.333 178.333 215.167 176.5 217C173.925 217.958 171.259 218.458 168.5 218.5C155.116 217.16 141.782 215.494 128.5 213.5C129.222 227.496 129.889 241.496 130.5 255.5C101.5 255.5 72.5 255.5 43.5 255.5C45.0774 228.216 47.5774 201.216 51 174.5C52.3386 166.461 56.1719 160.128 62.5 155.5C65.0236 154.073 67.6902 152.906 70.5 152C80.9365 150.119 91.2698 150.619 101.5 153.5C105.603 154.09 109.603 155.09 113.5 156.5C123.558 161.847 134.225 166.18 145.5 169.5C150.152 171.341 154.818 172.841 159.5 174C165.985 163.519 172.318 153.019 178.5 142.5Z" fill="#4BB2FD"/>
<path fill-rule="evenodd" clip-rule="evenodd" d="M178.5 141.5C187.069 144.462 195.402 147.796 203.5 151.5C194.875 149.071 186.542 146.071 178.5 142.5C178.5 142.167 178.5 141.833 178.5 141.5Z" fill="#5C58FF"/>
<path fill-rule="evenodd" clip-rule="evenodd" d="M113.5 156.5C124.386 159.944 135.053 163.944 145.5 168.5C145.5 168.833 145.5 169.167 145.5 169.5C134.225 166.18 123.558 161.847 113.5 156.5Z" fill="#5C58FF"/>
<path opacity="0.917" fill-rule="evenodd" clip-rule="evenodd" d="M151.5 230.5C157.358 231.842 163.024 233.675 168.5 236C164.542 240.304 160.209 244.137 155.5 247.5C153.384 242.036 152.051 236.37 151.5 230.5ZM154.5 233.5C157.575 234.517 160.575 235.683 163.5 237C161.333 239.167 159.167 241.333 157 243.5C155.476 240.39 154.642 237.056 154.5 233.5Z" fill="#7672FF"/>
</g>
<defs>
<clipPath id="clip0_30_13">
<rect width="300" height="256" fill="white"/>
</clipPath>
</defs>
</svg>
