<svg width="300" height="210" viewBox="0 0 300 210" fill="none" xmlns="http://www.w3.org/2000/svg">
<g clip-path="url(#clip0_31_159)">
<path fill-rule="evenodd" clip-rule="evenodd" d="M133.5 -0.5C137.5 -0.5 141.5 -0.5 145.5 -0.5C150.386 3.37598 155.886 4.37598 162 2.5C171.034 3.03655 176.534 7.70321 178.5 16.5C183.385 15.8558 186.552 17.8558 188 22.5C188.998 27.3566 188.165 31.8566 185.5 36C189.13 39.0498 190.297 42.8831 189 47.5C187.721 52.7246 185.388 57.3913 182 61.5C176.996 67.3365 171.829 73.0031 166.5 78.5C165.386 74.2913 165.553 69.9579 167 65.5C174.761 63.0803 176.595 58.247 172.5 51C169.986 49.7475 167.32 49.2475 164.5 49.5C164.5 45.5 164.5 41.5 164.5 37.5C155.986 39.2803 147.653 38.7803 139.5 36C137.981 34.6487 136.648 33.1487 135.5 31.5C130.869 34.0199 125.869 35.0199 120.5 34.5C120.247 38.0399 119.581 41.3733 118.5 44.5C109.791 39.0856 106.624 31.419 109 21.5C112.274 16.1073 117.107 13.1073 123.5 12.5C124.62 6.38938 127.953 2.05605 133.5 -0.5Z" fill="#7672FF"/>
<path opacity="0.01" fill-rule="evenodd" clip-rule="evenodd" d="M274.5 21.5C275.833 22.1667 275.833 22.1667 274.5 21.5V21.5Z" fill="black"/>
<path fill-rule="evenodd" clip-rule="evenodd" d="M166.5 78.5C166.5 82.8333 166.5 87.1667 166.5 91.5C158.629 92.1951 150.629 92.8617 142.5 93.5C141.808 94.0253 141.308 94.6919 141 95.5C140.502 98.8168 140.335 102.15 140.5 105.5C136.911 104.908 134.578 102.908 133.5 99.5C134.392 94.5624 134.726 89.5624 134.5 84.5C126.948 84.8103 121.782 81.477 119 74.5C117.385 64.5405 117.218 54.5405 118.5 44.5C119.581 41.3733 120.247 38.0399 120.5 34.5C125.869 35.0199 130.869 34.0199 135.5 31.5C136.648 33.1487 137.981 34.6487 139.5 36C147.653 38.7803 155.986 39.2803 164.5 37.5C164.5 41.5 164.5 45.5 164.5 49.5C167.32 49.2475 169.986 49.7475 172.5 51C176.595 58.247 174.761 63.0803 167 65.5C165.553 69.9579 165.386 74.2913 166.5 78.5Z" fill="#F6A487"/>
<path opacity="0.998" fill-rule="evenodd" clip-rule="evenodd" d="M299.5 74.5001C299.5 85.8334 299.5 97.1668 299.5 108.5C298.833 108.5 298.167 108.5 297.5 108.5C294.833 108.5 292.167 108.5 289.5 108.5C277.162 108.333 264.829 108.5 252.5 109C247.333 113.5 242.167 118 237 122.5C236.539 117.816 236.705 113.149 237.5 108.5C234.635 108.945 230.135 109.278 228 107.5C228.114 102.394 227.5 97.0001 227.5 92.5001C227.627 87.9487 227.794 83.282 228 78.5001C228.574 76.5081 229.741 75.0081 231.5 74.0001C254.21 73.1879 276.876 73.3546 299.5 74.5001Z" fill="#2824C1"/>
<path opacity="0.999" fill-rule="evenodd" clip-rule="evenodd" d="M51 66C53.4623 72.181 55.4623 78.5143 57 85C56.8737 88.095 55.207 89.9283 52 90.5C45.7019 93.1122 39.3686 93.9456 33 93C34.7418 91.5427 36.7418 90.376 39 89.5C38.0484 85.704 39.7151 83.5373 44 83C44.9492 80.3742 44.9492 77.7075 44 75C44.4333 70.5621 46.7666 67.5621 51 66Z" fill="#EF9C81"/>
<path opacity="0.999" fill-rule="evenodd" clip-rule="evenodd" d="M58.5001 88.5C59.397 92.9445 60.0637 97.4445 60.5001 102C59.3839 108.85 58.5506 115.683 58.0001 122.5C62.2165 132.992 66.7165 143.325 71.5001 153.5C72.1068 153.376 72.4401 153.043 72.5001 152.5C73.5521 152.351 74.5521 152.517 75.5001 153C83.3436 160.011 91.0103 167.178 98.5001 174.5C98.1374 175.183 97.804 175.85 97.5001 176.5C90.0827 185.417 81.0827 192.251 70.5001 197C62.9439 197.973 56.7772 195.473 52.0001 189.5C47.3133 182.446 43.98 174.779 42.0001 166.5C38.3345 153.005 35.5011 139.338 33.5001 125.5C25.9242 117.784 22.2575 108.451 22.5001 97.5C24.1758 95.1663 26.5091 94.1663 29.5001 94.5C29.9465 98.6983 30.9465 102.698 32.5001 106.5C31.1267 106.657 29.7933 106.49 28.5001 106C27.2745 104.365 25.9411 102.865 24.5001 101.5C23.4791 102.002 23.3124 102.668 24.0001 103.5C25.5001 105 27.0001 106.5 28.5001 108C30.8088 108.756 32.8088 108.256 34.5001 106.5C36.5099 108.171 38.8432 108.838 41.5001 108.5C41.2811 109.675 41.6144 110.675 42.5001 111.5C42.8584 108.124 44.3584 105.458 47.0001 103.5C47.6905 100.474 48.8572 97.641 50.5001 95C50.3614 93.699 49.6947 92.8656 48.5001 92.5C51.1026 90.8583 53.7693 89.1916 56.5001 87.5C57.1836 87.8627 57.8502 88.1961 58.5001 88.5Z" fill="#F6A487"/>
<path fill-rule="evenodd" clip-rule="evenodd" d="M166.5 91.5C186.758 92.4876 206.591 93.3209 227 93C228.5 92.5 227.5 104 228.5 107.5C230.635 109.278 234.635 108.945 237.5 108.5C236.705 113.149 236.539 117.816 237 122.5C242.167 118 247.333 113.5 252.5 109C264.829 108.5 277.162 108.333 289.5 108.5C289.5 109.167 289.5 109.833 289.5 110.5C289.803 133.866 289.47 157.199 288.5 180.5C268.831 180.333 249.164 180.5 229.5 181C228.524 187.076 228.19 193.242 228.5 199.5C219.318 199.827 210.318 199.493 201.5 198.5C201.5 192.5 201.5 186.5 201.5 180.5C200.167 180.5 198.833 180.5 197.5 180.5C179.497 180.667 161.497 180.5 143.5 180C142.692 179.692 142.025 179.192 141.5 178.5C140.51 154.212 140.177 129.878 140.5 105.5C140.335 102.15 140.502 98.8168 141 95.5C141.308 94.6919 141.808 94.0253 142.5 93.5C150.629 92.8617 158.629 92.1951 166.5 91.5Z" fill="#7672FF"/>
<path fill-rule="evenodd" clip-rule="evenodd" d="M45.5 93.5C46.3287 96.4686 46.4954 99.4686 46 102.5C44.0624 103.86 42.3957 103.527 41 101.5C39.8638 99.257 39.0305 96.9237 38.5 94.5C40.861 94.3259 43.1944 93.9926 45.5 93.5Z" fill="#F4A185"/>
<path fill-rule="evenodd" clip-rule="evenodd" d="M239.5 95.4999C256.513 95.1671 273.513 95.5004 290.5 96.4999C282 96.8332 273.5 97.1666 265 97.4999C256.139 97.498 247.639 96.8313 239.5 95.4999Z" fill="#4BB2FD"/>
<path opacity="0.981" fill-rule="evenodd" clip-rule="evenodd" d="M133.5 99.5C134.578 102.908 136.911 104.908 140.5 105.5C140.177 129.878 140.51 154.212 141.5 178.5C142.025 179.192 142.692 179.692 143.5 180C161.497 180.5 179.497 180.667 197.5 180.5C198.26 186.804 198.593 193.137 198.5 199.5C190.445 199.23 182.445 199.563 174.5 200.5C158.144 201.513 141.811 201.68 125.5 201C120.449 201.228 117.449 203.728 116.5 208.5C113.941 208.198 111.607 208.532 109.5 209.5C108.5 209.5 107.5 209.5 106.5 209.5C105.473 204.262 104.806 198.928 104.5 193.5C105.55 186.817 105.55 180.151 104.5 173.5C102.754 175.854 100.421 176.854 97.5 176.5C97.8039 175.85 98.1373 175.183 98.5 174.5C91.0102 167.178 83.3435 160.011 75.5 153C74.552 152.517 73.552 152.351 72.5 152.5C72.3893 151.883 72.056 151.383 71.5 151C76.7249 144.106 81.5583 136.94 86 129.5C90.4058 122.424 95.5724 115.924 101.5 110C111.202 103.6 121.868 100.1 133.5 99.5Z" fill="#4BB2FD"/>
<path fill-rule="evenodd" clip-rule="evenodd" d="M48.5 92.5C49.6946 92.8656 50.3613 93.699 50.5 95C48.8571 97.641 47.6904 100.474 47 103.5C44.3583 105.458 42.8583 108.124 42.5 111.5C41.6143 110.675 41.281 109.675 41.5 108.5C38.8431 108.838 36.5098 108.171 34.5 106.5C32.8087 108.256 30.8087 108.756 28.5 108C27 106.5 25.5 105 24 103.5C23.3123 102.668 23.479 102.002 24.5 101.5C25.941 102.865 27.2744 104.365 28.5 106C29.7932 106.49 31.1266 106.657 32.5 106.5C30.9464 102.698 29.9464 98.6983 29.5 94.5C29.8333 94.5 30.1667 94.5 30.5 94.5C31.3398 100.19 34.1731 104.523 39 107.5C40.5 107.333 41.3333 106.5 41.5 105C39.4265 101.687 37.7598 98.1865 36.5 94.5C37.1667 94.5 37.8333 94.5 38.5 94.5C39.0305 96.9237 39.8638 99.257 41 101.5C42.3957 103.527 44.0624 103.86 46 102.5C46.4954 99.4686 46.3287 96.4686 45.5 93.5C46.391 92.8902 47.391 92.5569 48.5 92.5Z" fill="#D46453"/>
<path fill-rule="evenodd" clip-rule="evenodd" d="M30.5 94.5C32.5 94.5 34.5 94.5 36.5 94.5C37.7598 98.1865 39.4265 101.687 41.5 105C41.3333 106.5 40.5 107.333 39 107.5C34.1731 104.523 31.3398 100.19 30.5 94.5Z" fill="#F3A085"/>
<path opacity="0.01" fill-rule="evenodd" clip-rule="evenodd" d="M289.5 108.5C292.167 108.5 294.833 108.5 297.5 108.5C294.947 109.255 292.28 109.922 289.5 110.5C289.5 109.833 289.5 109.167 289.5 108.5Z" fill="black"/>
<path opacity="0.582" fill-rule="evenodd" clip-rule="evenodd" d="M203.5 151.5C211.174 151.334 218.841 151.5 226.5 152C227 152.5 227.5 153 228 153.5C228.667 160.5 228.667 167.5 228 174.5C226.54 167.677 226.04 160.677 226.5 153.5C218.826 153.334 211.159 153.5 203.5 154C202.85 160.778 202.183 167.611 201.5 174.5C200.336 167.858 200.169 161.192 201 154.5C202.045 153.627 202.878 152.627 203.5 151.5Z" fill="#2824C1"/>
<path opacity="0.479" fill-rule="evenodd" clip-rule="evenodd" d="M201.036 198C210.169 199.49 219.49 199.991 229 199.5C219.334 201.5 209.666 201.5 200 199.5C200 198.5 200.345 198 201.036 198Z" fill="#2824C1"/>
<path opacity="0.995" fill-rule="evenodd" clip-rule="evenodd" d="M198.5 199.5C199.167 199.5 199.833 199.5 200.5 199.5C209.833 200.833 219.167 200.833 228.5 199.5C236.84 199.334 245.173 199.5 253.5 200C257.044 201.539 259.044 204.206 259.5 208C239.996 208.168 220.662 208.668 201.5 209.5C201.167 209.5 200.833 209.5 200.5 209.5C190.681 208.506 180.681 208.173 170.5 208.5C170.776 205.281 172.109 202.615 174.5 200.5C182.445 199.563 190.445 199.23 198.5 199.5Z" fill="#7672FF"/>
<path opacity="0.998" fill-rule="evenodd" clip-rule="evenodd" d="M174.5 200.5C172.109 202.615 170.776 205.281 170.5 208.5C180.681 208.173 190.681 208.506 200.5 209.5C172.5 209.5 144.5 209.5 116.5 209.5C116.5 209.167 116.5 208.833 116.5 208.5C117.449 203.728 120.449 201.228 125.5 201C141.811 201.68 158.144 201.513 174.5 200.5Z" fill="#2723C0"/>
<circle cx="37.5" cy="58.5" r="35.5" stroke="#7672FF" stroke-width="2"/>
<path d="M51.7222 55.8812L53.451 57.6153C54.183 58.3496 54.183 59.537 53.451 60.2635L38.32 75.4493C37.588 76.1836 36.4043 76.1836 35.68 75.4493L20.549 60.2713C19.817 59.537 19.817 58.3496 20.549 57.6231L22.2778 55.889C23.0176 55.1469 24.2247 55.1625 24.9489 55.9202L33.8811 65.3254L33.8811 42.8748C33.8811 41.8358 34.7144 41 35.7501 41H38.2421C39.2778 41 40.1111 41.8358 40.1111 42.8748L40.1111 65.3254L49.0511 55.9124C49.7753 55.1469 50.9824 55.1312 51.7222 55.8812Z" fill="#4BB2FD"/>
<rect x="249" y="5" width="37" height="18" rx="6" fill="#7672FF"/>
<rect x="249" y="28" width="37" height="18" rx="6" fill="#4BB2FD"/>
<rect x="249" y="51" width="37" height="18" rx="6" fill="#7672FF"/>
<path d="M263.973 12.577C263.973 13.215 263.753 13.7467 263.313 14.172C262.88 14.59 262.217 14.799 261.322 14.799H259.848V18H258.847V10.333H261.322C262.187 10.333 262.844 10.542 263.291 10.96C263.746 11.378 263.973 11.917 263.973 12.577ZM261.322 13.974C261.879 13.974 262.29 13.853 262.554 13.611C262.818 13.369 262.95 13.0243 262.95 12.577C262.95 11.631 262.407 11.158 261.322 11.158H259.848V13.974H261.322ZM267.604 10.333C268.44 10.333 269.162 10.4907 269.771 10.806C270.387 11.114 270.856 11.5577 271.179 12.137C271.509 12.7163 271.674 13.3983 271.674 14.183C271.674 14.9677 271.509 15.6497 271.179 16.229C270.856 16.801 270.387 17.241 269.771 17.549C269.162 17.8497 268.44 18 267.604 18H265.217V10.333H267.604ZM267.604 17.175C268.594 17.175 269.349 16.9147 269.87 16.394C270.391 15.866 270.651 15.129 270.651 14.183C270.651 13.2297 270.387 12.4853 269.859 11.95C269.338 11.4147 268.587 11.147 267.604 11.147H266.218V17.175H267.604ZM277.328 10.333V11.147H273.995V13.732H276.701V14.546H273.995V18H272.994V10.333H277.328Z" fill="white"/>
<path d="M261.483 33.333L259.261 41H258.139L256.357 34.829L254.509 41L253.398 41.011L251.253 33.333H252.32L253.992 39.834L255.84 33.333H256.962L258.722 39.812L260.405 33.333H261.483ZM266.054 41.077C265.343 41.077 264.694 40.912 264.107 40.582C263.521 40.2447 263.055 39.779 262.71 39.185C262.373 38.5837 262.204 37.909 262.204 37.161C262.204 36.413 262.373 35.742 262.71 35.148C263.055 34.5467 263.521 34.081 264.107 33.751C264.694 33.4137 265.343 33.245 266.054 33.245C266.773 33.245 267.426 33.4137 268.012 33.751C268.599 34.081 269.061 34.543 269.398 35.137C269.736 35.731 269.904 36.4057 269.904 37.161C269.904 37.9163 269.736 38.591 269.398 39.185C269.061 39.779 268.599 40.2447 268.012 40.582C267.426 40.912 266.773 41.077 266.054 41.077ZM266.054 40.208C266.59 40.208 267.07 40.0833 267.495 39.834C267.928 39.5847 268.265 39.229 268.507 38.767C268.757 38.305 268.881 37.7697 268.881 37.161C268.881 36.545 268.757 36.0097 268.507 35.555C268.265 35.093 267.932 34.7373 267.506 34.488C267.081 34.2387 266.597 34.114 266.054 34.114C265.512 34.114 265.028 34.2387 264.602 34.488C264.177 34.7373 263.84 35.093 263.59 35.555C263.348 36.0097 263.227 36.545 263.227 37.161C263.227 37.7697 263.348 38.305 263.59 38.767C263.84 39.229 264.177 39.5847 264.602 39.834C265.035 40.0833 265.519 40.208 266.054 40.208ZM275.263 41L273.437 37.865H272.227V41H271.226V33.333H273.701C274.28 33.333 274.768 33.432 275.164 33.63C275.567 33.828 275.868 34.0957 276.066 34.433C276.264 34.7703 276.363 35.1553 276.363 35.588C276.363 36.116 276.209 36.5817 275.901 36.985C275.6 37.3883 275.146 37.656 274.537 37.788L276.462 41H275.263ZM272.227 37.062H273.701C274.244 37.062 274.651 36.93 274.922 36.666C275.193 36.3947 275.329 36.0353 275.329 35.588C275.329 35.1333 275.193 34.7813 274.922 34.532C274.658 34.2827 274.251 34.158 273.701 34.158H272.227V37.062ZM280.305 33.333C281.141 33.333 281.864 33.4907 282.472 33.806C283.088 34.114 283.558 34.5577 283.88 35.137C284.21 35.7163 284.375 36.3983 284.375 37.183C284.375 37.9677 284.21 38.6497 283.88 39.229C283.558 39.801 283.088 40.241 282.472 40.549C281.864 40.8497 281.141 41 280.305 41H277.918V33.333H280.305ZM280.305 40.175C281.295 40.175 282.051 39.9147 282.571 39.394C283.092 38.866 283.352 38.129 283.352 37.183C283.352 36.2297 283.088 35.4853 282.56 34.95C282.04 34.4147 281.288 34.147 280.305 34.147H278.919V40.175H280.305Z" fill="white"/>
<path d="M260.566 56.333V57.147H258.476V64H257.475V57.147H255.374V56.333H260.566ZM262.799 57.147V59.71H265.593V60.535H262.799V63.175H265.923V64H261.798V56.322H265.923V57.147H262.799ZM270.573 60.172L272.927 64H271.794L269.957 61.008L268.208 64H267.097L269.44 60.172L267.086 56.333H268.208L270.056 59.336L271.816 56.333H272.938L270.573 60.172ZM278.989 56.333V57.147H276.899V64H275.898V57.147H273.797V56.333H278.989Z" fill="white"/>
</g>
<defs>
<clipPath id="clip0_31_159">
<rect width="300" height="210" fill="white"/>
</clipPath>
</defs>
</svg>
